<svg xmlns="http://www.w3.org/2000/svg" version="1.1" xmlns:xlink="http://www.w3.org/1999/xlink" xmlns:svgjs="http://svgjs.com/svgjs" width="1440" height="560" preserveAspectRatio="none" viewBox="0 0 1440 560"><g mask="url(&quot;#SvgjsMask1058&quot;)" fill="none"><rect width="1440" height="560" x="0" y="0" fill="rgba(33, 42, 62, 1)"></rect><path d="M0,452.189C82.517,470.991,165.772,413.191,230.508,358.677C290.822,307.887,332.93,236.367,348.166,159.002C361.782,89.862,324.451,24.394,309.918,-44.559C296.51,-108.173,298.782,-174.366,266.061,-230.543C228.97,-294.222,180.767,-355.45,112.569,-383.375C41.447,-412.497,-39.426,-407.057,-113.305,-385.883C-187.487,-364.622,-259.299,-326.395,-304.493,-263.845C-348.077,-203.524,-355.809,-125.489,-355.216,-51.072C-354.684,15.686,-334.667,79.776,-301.297,137.598C-270.137,191.591,-214.741,222.028,-171.622,267.049C-112.213,329.079,-83.744,433.108,0,452.189" fill="#1a2232"></path><path d="M1440 1259.638C1574.209 1265.5700000000002 1719.183 1239.848 1819.459 1150.45 1915.958 1064.4189999999999 1934.349 923.912 1958.94 796.992 1979.016 693.373 1972.775 589.559 1948.013 486.959 1925.1 392.022 1882.095 305.99 1821.879 229.10000000000002 1759.118 148.95999999999998 1692.563 61.012 1594.13 35.08000000000004 1496.41 9.336000000000013 1399.04 61.88900000000001 1302.676 92.31900000000002 1208.3319999999999 122.11099999999999 1109.772 143.73399999999998 1037.18 210.95499999999998 959.879 282.537 914.296 379.16200000000003 883.96 480.054 849.646 594.175 816.149 714.968 851.407 828.8009999999999 888.595 948.865 980.0799999999999 1043.593 1081.503 1117.833 1187.343 1195.306 1308.963 1253.846 1440 1259.638" fill="#28324a"></path></g><defs><mask id="SvgjsMask1058"><rect width="1440" height="560" fill="#ffffff"></rect></mask></defs></svg>